<?xml version="1.0" encoding="UTF-8"?>
<svg width="900" height="434" viewBox="0 0 900 434" xmlns="http://www.w3.org/2000/svg" role="img" aria-label="Technology distribution pie chart">
  <style>
    .muted { fill: #57606a; }
    .fg { fill: #24292f; }
    .rule { stroke: #d0d7de; }
    .slice { stroke: rgba(255, 255, 255, 0.65); }
    .halo { fill: rgba(249, 115, 22, 0.10); }
    @media (prefers-color-scheme: dark) {
      .muted { fill: #8b949e; }
      .fg { fill: #e6edf3; }
      .rule { stroke: #30363d; }
      .slice { stroke: rgba(13, 17, 23, 0.65); }
      .halo { fill: rgba(249, 115, 22, 0.14); }
    }
  </style>
  <text x="36" y="42" fill="#ea580c" font-size="22" font-weight="700" font-family="-apple-system,BlinkMacSystemFont,Segoe UI,Helvetica,Arial,sans-serif">Tech distribution</text>
  <text class="muted" x="36" y="66" font-size="13" font-family="-apple-system,BlinkMacSystemFont,Segoe UI,Helvetica,Arial,sans-serif">Languages + MySQL/NoSQL/IA by bytes · top 8</text>

  <circle class="halo" cx="250" cy="230" r="148" />
  <path class="slice" d="M 251.45 92.01 A 138 138 0 1 1 240.10 367.64 L 244.41 307.80 A 78 78 0 1 0 250.82 152.00 Z" fill="#FF6600" stroke-width="2" opacity="0">
        <title>Java: 51.3%</title>
        <animate attributeName="opacity" from="0" to="1" begin="0.00s" dur="0.4s" fill="freeze" />
      </path>
<path class="slice" d="M 237.22 367.41 A 138 138 0 0 1 125.68 289.91 L 179.73 263.86 A 78 78 0 0 0 242.78 307.66 Z" fill="#FF694B" stroke-width="2" opacity="0">
        <title>TypeScript: 16.7%</title>
        <animate attributeName="opacity" from="0" to="1" begin="0.07s" dur="0.4s" fill="freeze" />
      </path>
<path class="slice" d="M 124.46 287.29 A 138 138 0 0 1 129.11 163.44 L 181.67 192.38 A 78 78 0 0 0 179.04 262.38 Z" fill="#017CEE" stroke-width="2" opacity="0">
        <title>Python: 15.2%</title>
        <animate attributeName="opacity" from="0" to="1" begin="0.14s" dur="0.4s" fill="freeze" />
      </path>
<path class="slice" d="M 130.53 160.93 A 138 138 0 0 1 175.92 113.57 L 208.13 164.19 A 78 78 0 0 0 182.47 190.96 Z" fill="#DC382D" stroke-width="2" opacity="0">
        <title>JavaScript: 8.0%</title>
        <animate attributeName="opacity" from="0" to="1" begin="0.21s" dur="0.4s" fill="freeze" />
      </path>
<path class="slice" d="M 178.38 112.04 A 138 138 0 0 1 209.44 98.10 L 227.07 155.45 A 78 78 0 0 0 209.52 163.33 Z" fill="#FF694B" stroke-width="2" opacity="0">
        <title>C: 4.3%</title>
        <animate attributeName="opacity" from="0" to="1" begin="0.28s" dur="0.4s" fill="freeze" />
      </path>
<path class="slice" d="M 212.21 97.28 A 138 138 0 0 1 219.93 95.32 L 233.00 153.87 A 78 78 0 0 0 228.64 154.98 Z" fill="#47A248" stroke-width="2" opacity="0">
        <title>NoSQL: 1.3%</title>
        <animate attributeName="opacity" from="0" to="1" begin="0.35s" dur="0.4s" fill="freeze" />
      </path>
<path class="slice" d="M 222.76 94.72 A 138 138 0 0 1 229.08 93.59 L 238.18 152.90 A 78 78 0 0 0 234.60 153.54 Z" fill="#4169E1" stroke-width="2" opacity="0">
        <title>CSS: 1.1%</title>
        <animate attributeName="opacity" from="0" to="1" begin="0.42s" dur="0.4s" fill="freeze" />
      </path>
<path class="slice" d="M 231.94 93.19 A 138 138 0 0 1 235.81 92.73 L 241.98 152.41 A 78 78 0 0 0 239.79 152.67 Z" fill="#8B5CF6" stroke-width="2" opacity="0">
        <title>IA: 0.8%</title>
        <animate attributeName="opacity" from="0" to="1" begin="0.49s" dur="0.4s" fill="freeze" />
      </path>
<path class="slice" d="M 238.69 92.46 A 138 138 0 0 1 248.55 92.01 L 249.18 152.00 A 78 78 0 0 0 243.61 152.26 Z" fill="#DC382D" stroke-width="2" opacity="0">
        <title>Other: 1.5%</title>
        <animate attributeName="opacity" from="0" to="1" begin="0.56s" dur="0.4s" fill="freeze" />
      </path>
  <text class="fg" x="250" y="222" text-anchor="middle" font-size="28" font-weight="700" font-family="-apple-system,BlinkMacSystemFont,Segoe UI,Helvetica,Arial,sans-serif">51%</text>
  <text class="muted" x="250" y="248" text-anchor="middle" font-size="13" font-family="-apple-system,BlinkMacSystemFont,Segoe UI,Helvetica,Arial,sans-serif">Java</text>

  
        <circle cx="470" cy="88" r="7" fill="#FF6600" />
        <text class="fg" x="490" y="93" font-size="15" font-weight="600" font-family="-apple-system,BlinkMacSystemFont,Segoe UI,Helvetica,Arial,sans-serif">Java</text>
        <text class="muted" x="860" y="93" text-anchor="end" font-size="14" font-family="-apple-system,BlinkMacSystemFont,Segoe UI,Helvetica,Arial,sans-serif">51.3%</text>
        <line class="rule" x1="490" y1="102" x2="860" y2="102" stroke-width="1" />
      

        <circle cx="470" cy="122" r="7" fill="#FF694B" />
        <text class="fg" x="490" y="127" font-size="15" font-weight="600" font-family="-apple-system,BlinkMacSystemFont,Segoe UI,Helvetica,Arial,sans-serif">TypeScript</text>
        <text class="muted" x="860" y="127" text-anchor="end" font-size="14" font-family="-apple-system,BlinkMacSystemFont,Segoe UI,Helvetica,Arial,sans-serif">16.7%</text>
        <line class="rule" x1="490" y1="136" x2="860" y2="136" stroke-width="1" />
      

        <circle cx="470" cy="156" r="7" fill="#017CEE" />
        <text class="fg" x="490" y="161" font-size="15" font-weight="600" font-family="-apple-system,BlinkMacSystemFont,Segoe UI,Helvetica,Arial,sans-serif">Python</text>
        <text class="muted" x="860" y="161" text-anchor="end" font-size="14" font-family="-apple-system,BlinkMacSystemFont,Segoe UI,Helvetica,Arial,sans-serif">15.2%</text>
        <line class="rule" x1="490" y1="170" x2="860" y2="170" stroke-width="1" />
      

        <circle cx="470" cy="190" r="7" fill="#DC382D" />
        <text class="fg" x="490" y="195" font-size="15" font-weight="600" font-family="-apple-system,BlinkMacSystemFont,Segoe UI,Helvetica,Arial,sans-serif">JavaScript</text>
        <text class="muted" x="860" y="195" text-anchor="end" font-size="14" font-family="-apple-system,BlinkMacSystemFont,Segoe UI,Helvetica,Arial,sans-serif">8.0%</text>
        <line class="rule" x1="490" y1="204" x2="860" y2="204" stroke-width="1" />
      

        <circle cx="470" cy="224" r="7" fill="#FF694B" />
        <text class="fg" x="490" y="229" font-size="15" font-weight="600" font-family="-apple-system,BlinkMacSystemFont,Segoe UI,Helvetica,Arial,sans-serif">C</text>
        <text class="muted" x="860" y="229" text-anchor="end" font-size="14" font-family="-apple-system,BlinkMacSystemFont,Segoe UI,Helvetica,Arial,sans-serif">4.3%</text>
        <line class="rule" x1="490" y1="238" x2="860" y2="238" stroke-width="1" />
      

        <circle cx="470" cy="258" r="7" fill="#47A248" />
        <text class="fg" x="490" y="263" font-size="15" font-weight="600" font-family="-apple-system,BlinkMacSystemFont,Segoe UI,Helvetica,Arial,sans-serif">NoSQL</text>
        <text class="muted" x="860" y="263" text-anchor="end" font-size="14" font-family="-apple-system,BlinkMacSystemFont,Segoe UI,Helvetica,Arial,sans-serif">1.3%</text>
        <line class="rule" x1="490" y1="272" x2="860" y2="272" stroke-width="1" />
      

        <circle cx="470" cy="292" r="7" fill="#4169E1" />
        <text class="fg" x="490" y="297" font-size="15" font-weight="600" font-family="-apple-system,BlinkMacSystemFont,Segoe UI,Helvetica,Arial,sans-serif">CSS</text>
        <text class="muted" x="860" y="297" text-anchor="end" font-size="14" font-family="-apple-system,BlinkMacSystemFont,Segoe UI,Helvetica,Arial,sans-serif">1.1%</text>
        <line class="rule" x1="490" y1="306" x2="860" y2="306" stroke-width="1" />
      

        <circle cx="470" cy="326" r="7" fill="#8B5CF6" />
        <text class="fg" x="490" y="331" font-size="15" font-weight="600" font-family="-apple-system,BlinkMacSystemFont,Segoe UI,Helvetica,Arial,sans-serif">IA</text>
        <text class="muted" x="860" y="331" text-anchor="end" font-size="14" font-family="-apple-system,BlinkMacSystemFont,Segoe UI,Helvetica,Arial,sans-serif">0.8%</text>
        <line class="rule" x1="490" y1="340" x2="860" y2="340" stroke-width="1" />
      

        <circle cx="470" cy="360" r="7" fill="#DC382D" />
        <text class="fg" x="490" y="365" font-size="15" font-weight="600" font-family="-apple-system,BlinkMacSystemFont,Segoe UI,Helvetica,Arial,sans-serif">Other</text>
        <text class="muted" x="860" y="365" text-anchor="end" font-size="14" font-family="-apple-system,BlinkMacSystemFont,Segoe UI,Helvetica,Arial,sans-serif">1.5%</text>
        <line class="rule" x1="490" y1="374" x2="860" y2="374" stroke-width="1" />
      
  <text class="muted" x="36" y="416" font-size="11" font-family="-apple-system,BlinkMacSystemFont,Segoe UI,Helvetica,Arial,sans-serif">Owned repos (HTML excluded) + *.sql as MySQL + queries/nosql as NoSQL + AI APIs as IA · 13 technologies</text>
</svg>
