<?xml version="1.0" encoding="UTF-8"?>
<svg width="900" height="420" viewBox="0 0 900 420" xmlns="http://www.w3.org/2000/svg" role="img" aria-label="Technology distribution pie chart">
  <rect width="100%" height="100%" rx="16" fill="#ffffff"/>
  <text x="36" y="42" fill="#ea580c" font-size="22" font-weight="700" font-family="-apple-system,BlinkMacSystemFont,Segoe UI,Helvetica,Arial,sans-serif">Tech distribution</text>
  <text x="36" y="66" fill="#64748b" font-size="13" font-family="-apple-system,BlinkMacSystemFont,Segoe UI,Helvetica,Arial,sans-serif">Languages + MySQL/NoSQL by bytes · top 5</text>

  <circle cx="250" cy="230" r="148" fill="#fff7ed"/>
  <path d="M 251.45 92.01 A 138 138 0 1 1 133.52 155.99 L 184.16 188.17 A 78 78 0 1 0 250.82 152.00 Z" fill="#b07219" stroke="#ffffff" stroke-width="2" opacity="0">
        <title>Java: 84.2%</title>
        <animate attributeName="opacity" from="0" to="1" begin="0.00s" dur="0.4s" fill="freeze" />
      </path>
<path d="M 135.10 153.57 A 138 138 0 0 1 212.13 97.30 L 228.59 155.00 A 78 78 0 0 0 185.06 186.80 Z" fill="#3572A5" stroke="#ffffff" stroke-width="2" opacity="0">
        <title>Python: 11.6%</title>
        <animate attributeName="opacity" from="0" to="1" begin="0.07s" dur="0.4s" fill="freeze" />
      </path>
<path d="M 214.91 96.54 A 138 138 0 0 1 239.53 92.40 L 244.08 152.22 A 78 78 0 0 0 230.17 154.56 Z" fill="#f1e05a" stroke="#ffffff" stroke-width="2" opacity="0">
        <title>JavaScript: 3.2%</title>
        <animate attributeName="opacity" from="0" to="1" begin="0.14s" dur="0.4s" fill="freeze" />
      </path>
<path d="M 242.42 92.21 A 138 138 0 0 1 244.27 92.12 L 246.76 152.07 A 78 78 0 0 0 245.71 152.12 Z" fill="#4db33d" stroke="#ffffff" stroke-width="2" opacity="0">
        <title>NoSQL: 0.5%</title>
        <animate attributeName="opacity" from="0" to="1" begin="0.21s" dur="0.4s" fill="freeze" />
      </path>
<path d="M 247.16 92.03 A 138 138 0 0 1 248.55 92.01 L 249.18 152.00 A 78 78 0 0 0 248.39 152.02 Z" fill="#e38c00" stroke="#ffffff" stroke-width="2" opacity="0">
        <title>MySQL: 0.5%</title>
        <animate attributeName="opacity" from="0" to="1" begin="0.28s" dur="0.4s" fill="freeze" />
      </path>
  <circle cx="250" cy="230" r="76" fill="#ffffff"/>
  <text x="250" y="222" text-anchor="middle" fill="#0f172a" font-size="28" font-weight="700" font-family="-apple-system,BlinkMacSystemFont,Segoe UI,Helvetica,Arial,sans-serif">84%</text>
  <text x="250" y="248" text-anchor="middle" fill="#64748b" font-size="13" font-family="-apple-system,BlinkMacSystemFont,Segoe UI,Helvetica,Arial,sans-serif">Java</text>

  
        <circle cx="470" cy="88" r="7" fill="#b07219" />
        <text x="490" y="93" fill="#0f172a" font-size="15" font-weight="600" font-family="-apple-system,BlinkMacSystemFont,Segoe UI,Helvetica,Arial,sans-serif">Java</text>
        <text x="860" y="93" text-anchor="end" fill="#64748b" font-size="14" font-family="-apple-system,BlinkMacSystemFont,Segoe UI,Helvetica,Arial,sans-serif">84.2%</text>
        <line x1="490" y1="102" x2="860" y2="102" stroke="#f1f5f9" stroke-width="1" />
      

        <circle cx="470" cy="122" r="7" fill="#3572A5" />
        <text x="490" y="127" fill="#0f172a" font-size="15" font-weight="600" font-family="-apple-system,BlinkMacSystemFont,Segoe UI,Helvetica,Arial,sans-serif">Python</text>
        <text x="860" y="127" text-anchor="end" fill="#64748b" font-size="14" font-family="-apple-system,BlinkMacSystemFont,Segoe UI,Helvetica,Arial,sans-serif">11.6%</text>
        <line x1="490" y1="136" x2="860" y2="136" stroke="#f1f5f9" stroke-width="1" />
      

        <circle cx="470" cy="156" r="7" fill="#f1e05a" />
        <text x="490" y="161" fill="#0f172a" font-size="15" font-weight="600" font-family="-apple-system,BlinkMacSystemFont,Segoe UI,Helvetica,Arial,sans-serif">JavaScript</text>
        <text x="860" y="161" text-anchor="end" fill="#64748b" font-size="14" font-family="-apple-system,BlinkMacSystemFont,Segoe UI,Helvetica,Arial,sans-serif">3.2%</text>
        <line x1="490" y1="170" x2="860" y2="170" stroke="#f1f5f9" stroke-width="1" />
      

        <circle cx="470" cy="190" r="7" fill="#4db33d" />
        <text x="490" y="195" fill="#0f172a" font-size="15" font-weight="600" font-family="-apple-system,BlinkMacSystemFont,Segoe UI,Helvetica,Arial,sans-serif">NoSQL</text>
        <text x="860" y="195" text-anchor="end" fill="#64748b" font-size="14" font-family="-apple-system,BlinkMacSystemFont,Segoe UI,Helvetica,Arial,sans-serif">0.5%</text>
        <line x1="490" y1="204" x2="860" y2="204" stroke="#f1f5f9" stroke-width="1" />
      

        <circle cx="470" cy="224" r="7" fill="#e38c00" />
        <text x="490" y="229" fill="#0f172a" font-size="15" font-weight="600" font-family="-apple-system,BlinkMacSystemFont,Segoe UI,Helvetica,Arial,sans-serif">MySQL</text>
        <text x="860" y="229" text-anchor="end" fill="#64748b" font-size="14" font-family="-apple-system,BlinkMacSystemFont,Segoe UI,Helvetica,Arial,sans-serif">0.5%</text>
        <line x1="490" y1="238" x2="860" y2="238" stroke="#f1f5f9" stroke-width="1" />
      
  <text x="36" y="402" fill="#94a3b8" font-size="11" font-family="-apple-system,BlinkMacSystemFont,Segoe UI,Helvetica,Arial,sans-serif">Owned repos + *.sql as MySQL + queries/nosql as NoSQL · 5 technologies</text>
</svg>
